HIERARCHY
ROOT Hips
{
	OFFSET 0.000000 0.000000 0.000000
	CHANNELS 6 Xposition Yposition Zposition Xrotation Yrotation Zrotation
	JOINT Spine
	{
		OFFSET 0.000000 0.053497 0.080245
		CHANNELS 3 Xrotation Yrotation Zrotation
		JOINT Spine1
		{
			OFFSET 0.000000 0.018579 0.105368
			CHANNELS 3 Xrotation Yrotation Zrotation
			JOINT Spine2
			{
				OFFSET 0.000000 0.009325 0.106586
				CHANNELS 3 Xrotation Yrotation Zrotation
				JOINT Spine3
				{
					OFFSET 0.000000 0.000000 0.106993
					CHANNELS 3 Xrotation Yrotation Zrotation
					JOINT Neck
					{
						OFFSET 0.000000 -0.040122 0.280858
						CHANNELS 3 Xrotation Yrotation Zrotation
						JOINT Head
						{
							OFFSET 0.000000 -0.025546 0.144881
							CHANNELS 3 Xrotation Yrotation Zrotation
							End Site
							{
								OFFSET 0.000000 0.000000 0.000000
							}
						}
					}
					JOINT RightShoulder
					{
						OFFSET -0.032541 -0.054234 0.175720
						CHANNELS 3 Xrotation Yrotation Zrotation
						JOINT RightArm
						{
							OFFSET -0.161619 0.000000 0.000000
							CHANNELS 3 Xrotation Yrotation Zrotation
							JOINT RightForeArm
							{
								OFFSET -0.257104 0.000000 0.000000
								CHANNELS 3 Xrotation Yrotation Zrotation
								JOINT RightHand
								{
									OFFSET -0.273485 0.000000 0.000000
									CHANNELS 3 Xrotation Yrotation Zrotation
									JOINT RightHandEnd
									{
										OFFSET -0.070844 0.000000 0.000000
										CHANNELS 3 Xrotation Yrotation Zrotation
										End Site
										{
											OFFSET 0.000000 0.000000 0.000000
										}
									}
									JOINT RightHandThumb1
									{
										OFFSET -0.028338 -0.047230 -0.018892
										CHANNELS 3 Xrotation Yrotation Zrotation
										End Site
										{
											OFFSET 0.000000 0.000000 0.000000
										}
									}
								}
							}
						}
					}
					JOINT LeftShoulder
					{
						OFFSET 0.032541 -0.054234 0.175720
						CHANNELS 3 Xrotation Yrotation Zrotation
						JOINT LeftArm
						{
							OFFSET 0.161619 0.000000 0.000000
							CHANNELS 3 Xrotation Yrotation Zrotation
							JOINT LeftForeArm
							{
								OFFSET 0.257104 0.000000 0.000000
								CHANNELS 3 Xrotation Yrotation Zrotation
								JOINT LeftHand
								{
									OFFSET 0.273485 0.000000 0.000000
									CHANNELS 3 Xrotation Yrotation Zrotation
									JOINT LeftHandEnd
									{
										OFFSET 0.070844 0.000000 0.000000
										CHANNELS 3 Xrotation Yrotation Zrotation
										End Site
										{
											OFFSET 0.000000 0.000000 0.000000
										}
									}
									JOINT LeftHandThumb1
									{
										OFFSET 0.028338 -0.047230 -0.018892
										CHANNELS 3 Xrotation Yrotation Zrotation
										End Site
										{
											OFFSET 0.000000 0.000000 0.000000
										}
									}
								}
							}
						}
					}
				}
			}
		}
	}
	JOINT RightUpLeg
	{
		OFFSET -0.096537 0.000000 -0.028202
		CHANNELS 3 Xrotation Yrotation Zrotation
		JOINT RightLeg
		{
			OFFSET 0.000000 0.000000 -0.431842
			CHANNELS 3 Xrotation Yrotation Zrotation
			JOINT RightFoot
			{
				OFFSET 0.000000 0.000000 -0.456398
				CHANNELS 3 Xrotation Yrotation Zrotation
				JOINT RightToeBase
				{
					OFFSET 0.000000 -0.128905 -0.046918
					CHANNELS 3 Xrotation Yrotation Zrotation
					End Site
					{
						OFFSET 0.000000 0.000000 0.000000
					}
				}
			}
		}
	}
	JOINT LeftUpLeg
	{
		OFFSET 0.096537 0.000000 -0.028202
		CHANNELS 3 Xrotation Yrotation Zrotation
		JOINT LeftLeg
		{
			OFFSET 0.000000 0.000000 -0.431842
			CHANNELS 3 Xrotation Yrotation Zrotation
			JOINT LeftFoot
			{
				OFFSET 0.000000 0.000000 -0.456398
				CHANNELS 3 Xrotation Yrotation Zrotation
				JOINT LeftToeBase
				{
					OFFSET 0.000000 -0.128905 -0.046918
					CHANNELS 3 Xrotation Yrotation Zrotation
					End Site
					{
						OFFSET 0.000000 0.000000 0.000000
					}
				}
			}
		}
	}
}
MOTION
Frames: 13
Frame Time: 0.033333
0.269105 1.203912 0.981347 11.783900 -4.167000 2.881400 5.268600 2.595200 -0.385700 4.304200 0.139700 0.024800 0.023100 -0.293500 -1.252800 0.162600 0.289200 -0.444400 -24.523200 2.021900 0.153000 6.331800 -1.123700 0.146500 -18.891500 3.329000 31.561100 -34.471200 -16.377600 16.632800 0.000000 0.000000 41.469200 -60.075500 2.553900 3.350700 0.000000 0.000000 0.000000 0.000000 0.000000 0.000000 -20.307900 -1.262900 -37.979800 -22.668500 5.094500 -21.178400 0.000000 0.000000 -30.656200 -45.164500 -4.991700 -1.545200 0.000000 0.000000 0.000000 0.000000 0.000000 0.000000 -17.089300 7.955500 -30.620700 4.963900 0.000000 0.000000 4.817800 -5.585800 9.999500 -1.690800 0.000000 0.000000 -15.008900 -1.053500 21.057500 3.829100 0.000000 0.000000 17.194300 31.125300 -8.024600 -1.131500 0.000000 0.000000 
0.267947 1.202599 0.980747 11.193400 -4.288400 2.647400 5.073100 2.601200 -0.387900 4.104300 0.220000 0.023900 0.500800 -0.359100 -1.361000 0.199300 0.351600 -0.462500 -22.285100 1.318600 -0.228800 4.806900 -0.371100 0.607400 -17.526800 2.363500 30.252200 -31.809200 -16.929100 16.024300 0.000000 0.000000 44.845300 -58.149100 3.020100 3.386100 0.000000 0.000000 0.000000 0.000000 0.000000 0.000000 -18.404200 -0.544100 -36.518000 -19.973900 5.903100 -19.932900 0.000000 0.000000 -30.133600 -43.602200 -5.171300 -0.881800 0.000000 0.000000 0.000000 0.000000 0.000000 0.000000 -16.810900 8.029400 -29.508900 5.724900 0.000000 0.000000 3.939500 -5.455300 9.065400 -1.484100 0.000000 0.000000 -14.630700 -1.199500 20.714000 4.543500 0.000000 0.000000 16.301100 31.349700 -7.488100 -1.025200 0.000000 0.000000 
0.266558 1.202238 0.979777 10.727400 -4.215900 2.641800 4.910300 2.404300 -0.361300 3.906800 0.230700 0.009400 0.874500 -0.336100 -1.629200 0.241800 0.438300 -0.565500 -20.807800 0.480700 -0.579500 3.810500 0.291200 1.116200 -16.000500 1.344600 28.965400 -28.958900 -17.749900 15.309800 0.000000 0.000000 48.046600 -56.086100 3.497400 3.160000 0.000000 0.000000 0.000000 0.000000 0.000000 0.000000 -16.385500 0.315000 -34.753100 -16.385800 7.019400 -19.138000 0.000000 0.000000 -29.508200 -41.482000 -5.131900 0.058300 0.000000 0.000000 0.000000 0.000000 0.000000 0.000000 -16.613400 7.934600 -28.723300 6.374000 0.000000 0.000000 3.112100 -5.240400 8.229800 -1.354400 0.000000 0.000000 -14.518900 -1.473300 19.538000 5.356600 0.000000 0.000000 14.869200 31.885700 -6.274700 -0.639500 0.000000 0.000000 
0.265123 1.202482 0.978258 10.286100 -3.976300 2.530100 4.784000 2.157400 -0.329800 3.767200 0.195700 -0.006600 1.054900 -0.737200 -1.540900 0.322000 0.471100 -0.540400 -19.645800 0.781100 -0.221700 3.031700 0.187600 0.881000 -14.021700 0.966100 27.587400 -25.981300 -18.650300 14.627500 0.000000 0.000100 50.798400 -53.420400 3.577900 3.238500 0.000000 0.000000 0.000000 0.000000 0.000000 0.000000 -14.092100 2.191600 -33.212200 -12.162800 7.949800 -18.541600 0.000000 0.000000 -28.730300 -40.185600 -4.064500 0.658500 0.000000 0.000000 0.000000 0.000000 0.000000 0.000000 -16.548000 7.659700 -27.746300 7.117800 0.000000 0.000000 2.226300 -5.032600 7.317900 -1.198900 0.000000 0.000000 -14.516400 -1.897900 18.119300 6.298500 0.000000 0.000000 12.680200 32.488300 -4.498000 0.168300 0.000000 0.000000 
0.263718 1.202858 0.976290 9.850600 -3.668100 2.206800 4.635900 1.918000 -0.289900 3.618600 0.088300 -0.010300 1.284500 -1.047200 -1.296100 0.409800 0.458700 -0.457600 -18.751100 1.030400 0.055200 2.411700 0.112200 0.724400 -11.898300 0.356600 26.146700 -22.261400 -19.316300 14.259900 0.000000 0.000100 52.872200 -50.357900 3.486000 3.512800 0.000000 0.000000 0.000000 0.000000 0.000000 0.000000 -11.651200 4.192500 -31.586000 -7.999300 9.475900 -18.178400 0.000000 0.000000 -28.110900 -39.725700 -3.165800 0.986900 0.000000 0.000000 0.000000 0.000000 0.000000 0.000000 -16.667700 7.285300 -26.233000 8.096100 0.000000 0.000000 1.212000 -4.856000 6.086300 -0.964500 0.000000 0.000000 -14.602300 -2.381500 16.861600 7.460300 0.000000 0.000000 9.799800 32.787100 -2.312100 1.290500 0.000000 0.000000 
0.262080 1.203190 0.974174 9.383700 -3.276500 1.850600 4.560800 1.484400 -0.194500 3.408600 -0.193400 -0.001200 1.836900 -0.053500 -1.653500 0.430500 0.423700 -0.612500 -18.617800 -1.209600 -1.092400 2.156900 1.390100 2.209200 -10.207700 -2.010200 24.949000 -17.542500 -19.692100 14.210500 0.000000 0.000100 54.324600 -48.002900 3.180600 3.180200 0.000000 0.000000 0.000000 0.000000 0.000000 0.000000 -9.484100 4.276500 -28.649200 -4.738400 13.284800 -18.493100 0.000000 0.000000 -28.248900 -39.076000 -3.709500 1.582400 0.000000 0.000000 0.000000 0.000000 0.000000 0.000000 -16.872900 6.779500 -24.225600 9.261600 0.000000 0.000000 0.131400 -4.602100 4.369600 -0.702800 0.000000 0.000000 -14.841600 -2.943600 15.558300 8.986800 0.000000 0.000000 6.526500 32.748200 0.157900 2.508000 0.000000 0.000000 
0.259936 1.203302 0.971885 8.839700 -2.694100 1.629600 4.623600 0.839000 -0.061200 3.229100 -0.501800 0.000900 2.505300 1.776400 -2.686500 0.433900 0.397100 -1.038000 -19.005800 -5.366900 -3.327400 1.846700 3.623700 4.968100 -8.832100 -5.497600 24.153000 -12.576500 -20.460000 14.097200 0.000000 0.000100 55.199600 -47.144300 2.291300 2.245900 0.000000 0.000000 0.000000 0.000000 0.000000 0.000000 -7.627400 2.628400 -24.312800 -2.243600 19.434500 -19.468100 0.000000 0.000000 -28.821700 -36.702700 -5.147600 2.219000 0.000000 0.000000 0.000000 0.000000 0.000000 0.000000 -17.058200 6.038200 -21.957300 10.595000 0.000000 0.000000 -1.016400 -4.209900 2.193700 -0.427200 0.000000 0.000000 -15.222900 -3.714000 13.900800 10.896700 0.000000 0.000000 3.111500 32.648700 2.672900 3.680600 0.000000 0.000000 
0.257513 1.202853 0.969063 8.148300 -1.951700 1.471900 4.686200 0.249800 0.040400 3.138600 -0.638100 -0.012200 2.977500 2.690300 -3.404700 0.466300 0.343900 -1.306700 -18.652000 -7.750000 -4.526400 1.137100 4.783700 6.462100 -7.054300 -7.642900 23.304400 -8.470600 -22.605400 13.680600 0.000000 0.000100 55.380100 -47.334100 1.237900 1.349200 0.000000 0.000000 0.000000 0.000000 0.000000 0.000000 -5.480000 2.333800 -20.593000 0.523000 24.959200 -20.380400 0.000000 0.000000 -28.608100 -32.294300 -5.873800 2.366800 0.000000 0.000000 0.000000 0.000000 0.000000 0.000000 -17.224200 5.130300 -19.634400 12.275300 0.000000 0.000000 -2.356200 -3.790800 -0.166600 -0.126000 0.000000 0.000000 -15.589100 -4.652900 11.908200 13.094200 0.000000 0.000000 -0.490600 32.605400 5.155800 4.753100 0.000000 0.000000 
0.255344 1.201781 0.965490 7.297900 -1.222300 1.205300 4.617000 -0.116800 0.079800 3.071100 -0.648600 -0.028200 3.236300 2.168400 -3.097100 0.480400 0.205100 -1.118700 -16.917700 -6.624900 -3.690100 0.254000 4.076800 5.406100 -4.769800 -7.456900 21.857200 -5.520300 -26.476300 12.999100 0.000000 0.000100 54.885900 -47.335400 0.890700 0.578000 0.000000 0.000000 0.000000 0.000000 0.000000 0.000000 -2.949800 4.696000 -18.883000 3.968200 28.366300 -20.808800 0.000000 0.000000 -27.265100 -27.625700 -6.221700 2.273500 0.000000 0.000000 0.000000 0.000000 0.000000 0.000000 -17.476100 4.261600 -17.384100 14.487200 0.000000 0.000000 -3.938100 -3.457400 -2.364900 0.150500 0.000000 0.000000 -15.867200 -5.521800 9.775300 15.540000 0.000000 0.000000 -4.424900 32.412000 7.834100 5.728500 0.000000 0.000000 
0.253619 1.200269 0.961263 6.380500 -0.584400 0.831400 4.496800 -0.307600 0.080100 2.977900 -0.610600 -0.037500 3.394000 1.108600 -2.279900 0.480700 0.022900 -0.728000 -14.518100 -4.172700 -2.179800 -0.856800 2.727000 3.426700 -2.521000 -6.324100 19.995700 -3.043700 -31.458900 12.155400 0.000000 0.000100 53.990100 -46.543500 1.523400 -0.259400 0.000000 0.000000 0.000000 0.000000 0.000000 0.000000 -0.715500 7.412900 -18.026300 7.752400 32.133900 -20.981800 0.000000 0.000000 -25.682600 -24.884800 -7.472800 2.500100 0.000000 0.000000 0.000000 0.000000 0.000000 0.000000 -17.877300 3.499900 -15.299200 17.141000 0.000000 0.000000 -5.643700 -3.140100 -4.261700 0.355400 0.000000 0.000000 -16.121800 -6.176800 7.650600 18.161800 0.000000 0.000000 -8.545200 31.890700 10.719600 6.676500 0.000000 0.000000 
0.252110 1.198301 0.956607 5.457200 -0.006700 0.545100 4.422200 -0.439100 0.077900 2.857800 -0.583100 -0.038300 3.550300 0.408100 -1.695300 0.486100 -0.154500 -0.419200 -12.372100 -2.694500 -1.318900 -1.917900 1.927200 2.238400 -0.629900 -5.675200 18.101100 -0.283400 -36.561900 11.396500 0.000000 0.000100 52.928100 -45.541700 2.705200 -1.116000 0.000000 0.000000 0.000000 0.000000 0.000000 0.000000 0.857700 8.712600 -16.694100 11.160500 38.054700 -20.959900 0.000000 0.000000 -24.541000 -24.485500 -9.299900 2.841100 0.000000 0.000000 0.000000 0.000000 0.000000 0.000000 -18.315100 2.793100 -13.495700 19.950600 0.000000 0.000000 -7.356400 -2.708900 -5.917300 0.511600 0.000000 0.000000 -16.312900 -6.643900 5.588800 20.711000 0.000000 0.000000 -12.468300 31.071400 13.357400 7.656600 0.000000 0.000000 
0.250756 1.195705 0.951842 4.528200 0.468500 0.498800 4.350100 -0.443300 0.049600 2.708400 -0.538300 -0.036100 3.701800 -0.152900 -1.331800 0.508300 -0.318600 -0.142900 -10.456300 -1.776900 -0.937400 -2.819400 1.451800 1.529000 1.081800 -5.324100 16.073500 2.902500 -41.444100 11.076300 0.000000 0.000100 51.564800 -45.046700 3.761400 -1.977200 0.000000 0.000000 0.000000 0.000000 0.000000 0.000000 2.274600 9.327600 -15.181300 13.879800 44.859200 -20.518200 0.000000 0.000000 -23.432800 -25.040700 -10.231300 2.862300 0.000000 0.000000 0.000000 0.000000 0.000000 0.000000 -18.626200 2.211800 -12.115900 22.666500 0.000000 0.000000 -9.030300 -2.205300 -7.335600 0.651800 0.000000 0.000000 -16.344900 -6.885600 3.551300 22.989500 0.000000 0.000000 -15.921600 29.920200 15.399100 8.626000 0.000000 0.000000 
0.249885 1.192456 0.947519 3.582700 0.730900 0.653100 4.225700 -0.219700 -0.029700 2.524300 -0.449200 -0.035000 3.819700 -0.945100 -0.902200 0.559600 -0.453600 0.180400 -8.411700 -0.479500 -0.582400 -3.766100 0.825600 0.517300 2.659000 -4.774200 13.759300 6.439200 -46.193000 11.452700 0.000000 0.000100 49.415800 -44.571900 4.005600 -2.955400 0.000000 0.000000 0.000000 0.000000 0.000000 0.000000 3.862000 10.107100 -13.996500 16.638600 50.986600 -20.261700 0.000000 0.000000 -21.599200 -24.978500 -9.996000 3.036600 0.000000 0.000000 0.000000 0.000000 0.000000 0.000000 -18.693000 1.908500 -11.189000 25.079800 0.000000 0.000000 -10.575000 -1.779300 -8.436600 0.762800 0.000000 0.000000 -16.209900 -6.776000 1.569400 25.015500 0.000000 0.000000 -18.735700 28.315800 16.930800 9.500300 0.000000 0.000000 
